# xmcd CD database file
#
# Track frame offsets:
#	152
#	15437
#	31275
#	49735
#	61190
#	76170
#	91202
#	105440
#	120432
#	135710
#	148207
#	161252
#	178380
#	191557
#
# Disc length: 2765 seconds
#
# Revision: 0
# Processed by: cddbd v1.5.2PL0 Copyright (c) Steve Scherf et al.
# Submitted via: cdripper 1,0,33,916
#
DISCID=ae0acb0e
DTITLE=Glenn Miller - 28 Greatest Hits - CD2
DYEAR=1900
DGENRE=Jazz
TTITLE0=Moonlight Serenade
TTITLE1=Tuxedo Junction
TTITLE2=Anvil Chorus
TTITLE3=Sun Valley Jump
TTITLE4=Starlit Hour
TTITLE5=King's March
TTITLE6=Juke Box Saturday Night
TTITLE7=Pennsylvania 65000
TTITLE8=A String of Pearls
TTITLE9=Georgia on my Mind
TTITLE10=Johnson Rag
TTITLE11=Glenn Island Line
TTITLE12=The Little Man who wasn't There
TTITLE13=Chattanooga Choo Choo
EXTD=
EXTT0=
EXTT1=
EXTT2=
EXTT3=
EXTT4=
EXTT5=
EXTT6=
EXTT7=
EXTT8=
EXTT9=
EXTT10=
EXTT11=
EXTT12=
EXTT13=
PLAYORDER=
